<svg xmlns="http://www.w3.org/2000/svg" viewBox="0 0 517.11 271.4"><defs><style>.cls-1{isolation:isolate;}.cls-2{fill:#fff;}.cls-3{fill:#663334;mix-blend-mode:overlay;}</style></defs><title>Asset 1</title><g class="cls-1"><g id="Layer_2" data-name="Layer 2"><g id="Layer_1-2" data-name="Layer 1"><path class="cls-2" d="M317.07,264.15l-2.4-.24c-2.21-.22-4.3-.43-6.36-.73a74.7,74.7,0,0,1-7.83-1.56,48.47,48.47,0,0,1-10-4,49.07,49.07,0,0,1-11.69-8.56,40.37,40.37,0,0,1-3.23-3.68c-.7-.86-1.43-1.76-2.22-2.64a7,7,0,0,0-5.4-2.65,7.45,7.45,0,0,0-4.5,1.62c-.74.54-1.42,1.09-2.08,1.61s-1.4,1.13-2.07,1.6l-.48.33a22.27,22.27,0,0,1-3.41,2.14l-.19.08a32.46,32.46,0,0,1-6.59,2.44,43.79,43.79,0,0,1-8.4.89l-1,0a31.54,31.54,0,0,1-11.4-2.23,63.23,63.23,0,0,1-5.9-2.82,23.29,23.29,0,0,1-6-4.58,9.14,9.14,0,0,0-6.49-3c-1.3-.06-2.58-.14-4-.22-2.28-.15-4.64-.3-7-.31H198a102.38,102.38,0,0,0-10.42.53,77.75,77.75,0,0,0-9.91,1.69c-4.15,1-8.36,2.16-12.52,3.49a25.43,25.43,0,0,0-6.25,3.17,11.68,11.68,0,0,0-3.45,4l-.08.13a15.75,15.75,0,0,1-8.36,6.85,31.19,31.19,0,0,1-7.49,1.52,23,23,0,0,1-2.64.15,31.73,31.73,0,0,1-8.26-1.21,18.67,18.67,0,0,1-7.59-3.75,66.27,66.27,0,0,1-5.17-5.17c-1-1.07-3-3.32-6.26-3.32a8.93,8.93,0,0,0-5.41,2.15c-.9.68-1.77,1.38-2.62,2.05-1.46,1.15-2.84,2.25-4.25,3.24a47.34,47.34,0,0,1-10.55,5.4,35,35,0,0,1-9.87,1.9l-.51,0a23.64,23.64,0,0,1-3.54-.41l-.62-.1a15.15,15.15,0,0,1-6.37-2.24,46.25,46.25,0,0,1-4.44-3.64l-.12-.1a7.94,7.94,0,0,0-5.33-2.3,8.44,8.44,0,0,0-4.34,1.35,40.11,40.11,0,0,1-11.08,4.86,38.21,38.21,0,0,1-9,1.06c-1.3,0-2.64-.06-4-.18a43.43,43.43,0,0,1-9-1.7c-5.41-1.66-8.5-4.29-10-8.53a29.65,29.65,0,0,1-1.69-10.43c0-.92-.07-1.77-.13-2.52a14.4,14.4,0,0,1-.08-1.87,30.45,30.45,0,0,1,.69-5.29,68.46,68.46,0,0,1,2.27-7A28.55,28.55,0,0,1,15.58,212a52.15,52.15,0,0,1,5.79-5.54,32.4,32.4,0,0,1,6-3.89,92.14,92.14,0,0,1,11.42-4.67,45.11,45.11,0,0,1,7.27-1.47l1.51-.22a37.14,37.14,0,0,1,5.62-.45h.13c4.91,0,8.83.51,12,2.83a5.6,5.6,0,0,1,.54.43,8,8,0,0,0,5.7,2.49,8.36,8.36,0,0,0,5-1.73,22.34,22.34,0,0,1,6.8-3.76,45.55,45.55,0,0,1,5.14-1.12,20.23,20.23,0,0,1,3.07-.23,31,31,0,0,1,6.12.69,14.22,14.22,0,0,1,6.32,2.84,7,7,0,0,0,4.44,1.56,7.74,7.74,0,0,0,6.21-3.2c.37-.5.71-1,1-1.48a24.07,24.07,0,0,1,2.15-2.82c2.7-2.82,6.39-4.66,11.63-5.76,1.47-.31,3-.51,4.65-.72,1.32-.18,2.68-.35,4.06-.6,4.74-.83,7.54-4.69,7-9.59,0-.22,0-.62,0-1s0-1.17,0-1.88c-.08-1.22-.2-2.44-.31-3.61-.07-.75-.14-1.49-.2-2.24-.08-1-.15-2-.23-2.92-.09-1.26-.19-2.57-.3-3.86-.39-4.42-.73-8.07-1.06-11.47-.49-5.12-.91-9.26-1.32-13-.26-2.46-.55-4.94-.83-7.34-.15-1.28-.29-2.55-.44-3.82l-.36-3.11c-.32-2.77-.65-5.63-.93-8.42-.1-1-.14-2.14-.18-3.3,0-.7,0-1.42-.09-2.15l0-.58c-.06-1.09-.11-2.22-.27-3.43-.11-.82-.19-1.37,1.6-2.55,2.56-1.69,5-3.53,7.35-5.31,1.45-1.1,3-2.23,4.44-3.29,2.26-1.62,4.61-3.24,6.89-4.81,1.84-1.27,3.74-2.58,5.61-3.9,1.52-1.07,3-2.18,4.48-3.25s2.91-2.14,4.37-3.16c1.76-1.25,3.59-2.5,5.35-3.71S182.2,71,184,69.71s3.37-2.41,5-3.6c1.81-1.31,3.67-2.66,5.51-4s3.48-2.37,5.2-3.52c1.31-.87,2.67-1.77,4-2.68,1.65-1.13,3.31-2.29,4.91-3.41,1.3-.91,2.65-1.86,4-2.77,3.46-2.38,7.54-5.19,11.61-7.94,2.53-1.71,5.13-3.43,7.64-5.1l2-1.33,3.47-2.3c3.55-2.36,7.21-4.8,10.83-7.16,2.8-1.83,5.7-3.65,8.5-5.41l1.35-.85,6.49-4.08c3.82-2.39,7.76-4.87,11.64-7.34.53-.33,1.05-.68,1.56-1-.29,1-.59,2.07-.88,3.11-.47,1.64-.91,3.29-1.34,4.89-.36,1.36-.74,2.77-1.12,4.13s-.81,2.88-1.22,4.29c-.52,1.8-1.06,3.67-1.57,5.54-.58,2.13-1.14,4.28-1.69,6.37s-1.07,4.09-1.62,6.13-1.07,3.84-1.6,5.72c-.64,2.27-1.3,4.63-1.93,7-.32,1.2-.57,2.38-.81,3.51-.21,1-.4,1.89-.63,2.77-.32,1.22-.67,2.43-1,3.71-.42,1.48-.86,3-1.25,4.56-.51,2-1,4.09-1.41,6.08l-.75,3.34c-.3,1.3-.61,2.6-.92,3.9-.37,1.56-.76,3.17-1.12,4.76-.14.62-.29,1.25-.45,1.87A48.17,48.17,0,0,0,255.14,95a7.62,7.62,0,0,0,1.67,6.21,6.87,6.87,0,0,0,5.24,2.23,11.37,11.37,0,0,0,2.53-.32c.68-.16,1.32-.34,1.88-.51l1.17-.32c1.25-.31,2.49-.64,3.69-1a80.08,80.08,0,0,1,8.18-1.88,52.71,52.71,0,0,1,8.1-.55l2.31,0a22.75,22.75,0,0,1,10.57,2.47,25,25,0,0,1,4.39,3.21,8.81,8.81,0,0,0,5.84,2.57,8.66,8.66,0,0,0,5.64-2.42c.79-.68,1.58-1.37,2.36-2.07,2.11-1.85,4.09-3.6,6.19-5.17A68.46,68.46,0,0,1,337,90.26a63.16,63.16,0,0,1,11.11-3.85,34.43,34.43,0,0,1,4.61-.67l1.56-.16.2,0a25.83,25.83,0,0,1,2.72-.22l.52,0c1.14.08,2.33.25,3.59.43,1,.14,2,.28,3,.39,2.45.26,4.93,1.5,7.55,2.82l.78.39a15.08,15.08,0,0,1,2.78,2.15c.45.39.91.8,1.4,1.2.23.2.53.51.85.85s.81.85,1.31,1.3a7.55,7.55,0,0,0,5.05,2,7.08,7.08,0,0,0,6.17-3.66c1.18-2.08,2.25-4.18,3.28-6.22l.29-.57c1.32-2.6,2.71-5.39,4.37-8.79.44-.9.87-1.8,1.28-2.67.5-1.07,1-2.08,1.47-3.07,1.73-3.45,3.52-7,5.22-10.28h.18c.92,0,1.93,0,3.18,0h5.74c8.09-.08,15.34-.17,22.15-.26,3,0,6.07-.12,9-.18l3.6-.08,7.62-.17,16.64-.35,3.43-.08,8.65-.19,3.43-.1.64,0c-.85,2-1.72,4-2.57,6l-1.05,2.43-2,4.65c-1.34,3.1-2.73,6.3-4.08,9.47-.77,1.8-1.42,3.46-2,5.07a6.93,6.93,0,0,0,.7,6.54A6.8,6.8,0,0,0,485,97.06l.53,0c3.13-.18,6.38-.47,9.66-.85,1.79-.2,3.56-.47,5.26-.73L504,95c2.24-.3,4.47-.58,6.6-.85-1.56,3.15-3.16,6.39-4.71,9.6-1,2.15-2,4.33-3,6.44L501.07,114c-.55,1.18-1.13,2.38-1.69,3.54-1,2-2,4.15-2.93,6.29-1.72,3.85-3.51,8-5.49,12.82l-.75,1.8c-1.8,4.34-3.66,8.83-5.34,13.34-1.32,3.54-2.42,7.14-3.48,10.63l-.41,1.35c-.39,1.28-.69,2.53-1,3.74-.14.59-.27,1.16-.41,1.7l-.42.06c-3.64.49-7.28,1.1-10.8,1.69l-2.55.43a8.14,8.14,0,0,0-3.57,1.58,6.38,6.38,0,0,0-2.65,5.53,6.26,6.26,0,0,0,3.25,5c2.3,1.31,4.39,2.4,6.42,3.33s4.45,1.93,6.82,2.8c5.51,2,10.94,3.92,16.15,5.72,2.33.8,4.69,1.54,7,2.27l.1,0-1.21,1.64c-.37.5-.75,1-1.12,1.51l-.53.72c-1.09,1.51-2.13,2.93-3.23,4.27-2.52,3.09-4.63,5.65-6.89,8.16s-4.62,5-7.14,7.38c-4.33,4-7.95,7.12-11.39,9.87a94.79,94.79,0,0,1-10,7.07c-3.61,2.17-7.59,4.28-12.91,6.83a57.84,57.84,0,0,1-8.14,3.06,63.56,63.56,0,0,1-11.84,2.69c-2.36.25-4.79.39-6.88.5l-1,.06c-1.84.1-3.57.19-5.28.19H411a48.72,48.72,0,0,1-15.36-2.52,38.47,38.47,0,0,1-7.91-3.53l-2-1.25c-1.75-1.09-3.41-2.13-5-3.25A9.83,9.83,0,0,0,375.1,239a9.17,9.17,0,0,0-5.88,2.39c-.9.73-1.79,1.48-2.64,2.21a84.35,84.35,0,0,1-6.74,5.33,133.59,133.59,0,0,1-11.73,7,59.43,59.43,0,0,1-8.46,3.82c-4.74,1.67-9,3.08-13.38,3.44-2.3.19-4.59.46-6.8.71Z"/><path d="M264.51,159.46a14.34,14.34,0,0,0-10.9,4.54,42.12,42.12,0,0,0-5.09,6.48,30.48,30.48,0,0,0-5.13,16.39,17.65,17.65,0,0,0,.25,2c.79,3.82,4.7,5.95,8.94,4.6,3.09-1,5.39-3.12,7.69-5.2a40,40,0,0,0,7.64-10.07c2.08-3.62,3.71-7.38,3.7-11.68C271.59,161.79,268.82,159.6,264.51,159.46ZM515,90.28c-3.83.28-7.64.68-11.45,1.11s-7.68,1-11.52,1.43c-2.55.3-5.11.55-7.66.85-1.79.22-2.54-.74-1.82-2.45,1.6-3.8,3.24-7.58,4.88-11.37,2.7-6.26,5.43-12.51,8.12-18.78a10.6,10.6,0,0,0,.62-2.13,2.08,2.08,0,0,0-2.28-2.26c-2.35,0-4.71.22-7.06.26-6.91.12-13.82.18-20.73.3-4.25.06-8.5.18-12.75.27l-13.47.29c-4.63.1-9.26.21-13.89.28q-11.22.16-22.44.28c-2,0-3.06,1.2-3.87,2.88q-5.22,10.68-10.53,21.31c-1.58,3.16-3.3,6.26-4.95,9.39-.94,1.77-1.81,1.9-3.25.51-4.13-4-8.8-7.22-14.41-8.72a43,43,0,0,0-8.66-1.4c-10.68-.59-20.36,2.7-29.68,7.68a85,85,0,0,0-9.9,6.4,53.88,53.88,0,0,0-4.32,4,38.74,38.74,0,0,1-3.09,2.66c-1.68,1.22-2,.93-3.63-.28a52.54,52.54,0,0,0-6.44-4.65,22.61,22.61,0,0,0-10.22-2.45c-1.31,0-2.62-.28-3.93-.26a66.19,66.19,0,0,0-19.55,3,37.57,37.57,0,0,1-6.08,1.44c-1.59.24-2.25-.64-2-2.31.23-1.42.53-2.83.87-4.23,1.78-7.49,3.49-15,5.4-22.44C267.58,62.25,270,53.64,272.3,45q2.34-8.66,4.71-17.3c1.8-6.52,3.64-13,5.43-19.55.62-2.27,1.16-4.57,1.65-6.88.08-.37-.34-.84-.53-1.27h-3.41c-4.26,2.8-8.52,5.61-12.79,8.39-5.2,3.38-10.43,6.72-15.63,10.11q-12.25,8-24.48,16c-5,3.3-9.94,6.69-14.91,10-4.7,3.18-9.41,6.32-14.07,9.55q-13.7,9.49-27.34,19.07c-2.7,1.89-5.37,3.84-8.05,5.77-5,3.62-10.07,7.26-15.14,10.85-4.31,3.06-8.74,6-13,9.1a7.07,7.07,0,0,0-3,7.61,40.12,40.12,0,0,1,.35,4.92q.54,6.08,1.12,12.16c.28,2.88.55,5.77.88,8.65s.76,5.73,1.09,8.6c.25,2.23.39,4.48.61,6.72.36,3.67.75,7.34,1.11,11,.22,2.14.42,4.28.58,6.43.31,4.12.53,8.24.89,12.36.33,3.76-1.35,4.11-4.35,4.52-5.44.73-10.94,1.32-15.84,4a27.06,27.06,0,0,0-5.72,4.19,32.3,32.3,0,0,0-3.72,5.11,1.93,1.93,0,0,1-2.76.58c-3.83-3.08-8.34-4-13.09-4.55a30.9,30.9,0,0,0-14.37,2.09,30.57,30.57,0,0,0-6.16,3.49c-1.8,1.22-2.37,1.37-4,0a19.92,19.92,0,0,0-12.21-4.46,40.13,40.13,0,0,0-4.5-.23c-3.71.34-7.41.85-11.1,1.33-6.32.84-12,3.56-17.59,6.36a43.21,43.21,0,0,0-8.24,5.69,47.69,47.69,0,0,0-6.56,6.84,25,25,0,0,0-4.62,8.11c-.9,2.89-2,5.71-3,8.55-.15.42-.33.82-.5,1.22V245.7c.09,0,.27,0,.27,0a47.32,47.32,0,0,0,.93,4.8,21.37,21.37,0,0,0,1.93,4.38,23.36,23.36,0,0,0,2.85,4c3.43,3.77,8,5.4,12.83,6.44a53.91,53.91,0,0,0,14,1.13,34.42,34.42,0,0,0,13.89-3.27c2.13-1.05,4.21-2.19,6.33-3.27,1.73-.89,2.32-.79,3.73.53,1,1,2.08,2,3.16,2.92a18.43,18.43,0,0,0,9,3.94,30.09,30.09,0,0,0,6.08.8,43.62,43.62,0,0,0,7.62-.95c7.74-1.57,14.37-5.39,20.39-10.39,1.21-1,2.46-2,3.76-2.9,1.55-1.07,2.38-.7,3.8.86s2.5,3.12,4,4.44a39.41,39.41,0,0,0,4.94,3.62,25.13,25.13,0,0,0,9.94,3.36,38.25,38.25,0,0,0,7.7.56c6.29-.26,12.32-1.6,17.24-5.86a20,20,0,0,0,4.19-5.06c1.76-3.13,4.66-4.48,7.73-5.47a119.29,119.29,0,0,1,12.21-3.25,96.27,96.27,0,0,1,11.33-1.62c3.62-.31,7.27-.33,10.9-.3a71.13,71.13,0,0,1,7.85.6,4,4,0,0,1,2.13,1.22c5.11,5.32,11.47,8.46,18.45,10.28,4.79,1.24,9.74,1.14,14.7.76a34.86,34.86,0,0,0,12.63-3.65,46.41,46.41,0,0,0,6.15-4.07c1-.69,1.87-1.56,2.88-2.22a1.59,1.59,0,0,1,2.49.48A52.57,52.57,0,0,0,285.45,264a58.08,58.08,0,0,0,16.8,6.09,72.7,72.7,0,0,0,18,1.18,66.56,66.56,0,0,0,23.85-5.81,144,144,0,0,0,12.73-6.94,84.11,84.11,0,0,0,13.75-10.29c.42-.37.88-.7,1.33-1,1.27-.93,2.44-.72,3.73.1,3.78,2.37,7.51,4.85,11.46,6.89a38.79,38.79,0,0,0,14.62,4.26c4.5.37,9,.62,13.55.56a74.63,74.63,0,0,0,28.14-5.77,111.6,111.6,0,0,0,13.24-6.89c4.34-2.58,8.51-5.48,12.63-8.42,2.5-1.79,4.8-3.88,7.14-5.89a93.31,93.31,0,0,0,7.55-6.76c4-4.27,7.86-8.7,11.56-13.24,3.26-4,6.26-8.23,9.29-12.41,1.54-2.1.61-3.74-1.9-4.39-3.76-1-7.47-2.21-11.14-3.49-6.52-2.27-13-4.57-19.48-7.06-3-1.15-5.73-2.79-8.62-4.22.69-1.44,1.82-1.53,2.92-1.71,4.58-.74,9.16-1.54,13.76-2.24,1.9-.29,2.69-1.61,3.05-3.21a154.46,154.46,0,0,1,9.27-27.5c3.78-8.69,7.66-17.33,11.56-26,2.17-4.79,4.47-9.51,6.7-14.27,1.9-4,3.78-8.09,5.67-12.14a3.47,3.47,0,0,0,.4-.88C517.34,90.57,517.05,90.13,515,90.28ZM55.14,222.17c-1,6.24-4.42,11.23-9,15.39a23.63,23.63,0,0,1-12,6.15c-4.38.74-10-2.81-11.67-7.24a11.17,11.17,0,0,1,.76-9.79,30.06,30.06,0,0,1,8.21-9.08,29.06,29.06,0,0,1,12-5.58c.68-.12,1.38-.2,1.76-.25,3.16.09,5.79.73,7.83,2.85A8.49,8.49,0,0,1,55.14,222.17Zm39,11.19a27.36,27.36,0,0,1-10.78,8.53c-4.2,1.89-9.12,1.61-11.93-1.79a14.68,14.68,0,0,1-3.13-7.32c-.6-3.92.77-7.43,2.3-10.84a28.39,28.39,0,0,1,4-6.78,13.12,13.12,0,0,1,10.87-4.79,16.08,16.08,0,0,1,10.38,3.13A8.47,8.47,0,0,1,99.38,220C99.74,225.32,97.1,229.43,94.15,233.36Zm48.51,3.44A14.57,14.57,0,0,1,132,243.45c-5.95.78-10.32-1.74-14-6.18A22,22,0,0,1,113,226.14a12.7,12.7,0,0,1,.19-4.84c1.15-4.43,3-8.5,6.62-11.59a15.2,15.2,0,0,1,7.85-3.62,15.43,15.43,0,0,1,13.73,4.66,14.42,14.42,0,0,1,3.83,8.49c.25,1.71.49,3.41.67,4.68C145.52,228.72,145.22,233,142.66,236.8Zm71.44-88.51c-.55,3.2-1.13,6.4-1.64,9.61-.19,1.16-.22,2.33-.36,3.49-.26,2.32-.56,4.64-.83,7q-.17,1.44-.3,2.88c-.48,5.13-1,10.26-1.41,15.4-.27,3.61-.38,7.23-.53,10.85-.22,5.34-.46,10.69-.6,16-.05,1.73.25,3.47.24,5.21,0,1.91-.17,3.83-.26,5.74,0,1.3-.85,1.6-2,1.6-6,0-12-.11-17.94,0a84,84,0,0,0-8.64.87c-2.5.3-5,.69-7.46,1.09s-4.86.82-7.27,1.29a1.73,1.73,0,0,1-2.29-1.67c-.34-3.53-.76-7.06-1.1-10.59-.16-1.64-.24-3.28-.3-4.93-.12-2.92-.2-5.84-.29-8.77q-.3-9.48-.57-19c0-1.57,0-3.15,0-4.72q-.13-14.85-.29-29.7c0-2.64-.27-5.27-.25-7.91,0-6.06.15-12.11.27-18.17.06-3.3.18-6.6.28-9.9a6.14,6.14,0,0,1,2.42-4.71c2.77-2.29,5.49-4.65,8.32-6.87,4.18-3.27,8.36-6.56,12.69-9.62,4.62-3.27,9.39-6.35,14.16-9.41,8.16-5.23,16.32-10.45,24.56-15.54,4.51-2.78,9.19-5.28,13.79-7.9.39-.22.82-.38,1.24-.57l.33.28c-.65,1.66-1.35,3.3-1.93,5q-4.23,12.36-8.4,24.75c-1.23,3.64-2.54,7.26-3.58,11-.88,3.12-1.38,6.34-2.1,9.5-1.78,7.77-3.69,15.51-5.34,23.31C215.67,138.18,215,143.25,214.1,148.29Zm68,50.56a58.6,58.6,0,0,1-8.79,13.38c-5.19,5.6-10.87,10.61-18,13.47-3,1.22-6.44,1.61-9.69,2.34a20.55,20.55,0,0,1-2.36.29c-3.49.38-6.73-.66-10-1.76-6.25-2.12-9.82-6.75-12.08-12.65a37.34,37.34,0,0,1-2.3-11.88c-.08-1.86-.6-3.73-.5-5.58.2-3.63.74-7.25,1.06-10.87a59.65,59.65,0,0,1,3.75-15.38c.95-2.62,2.12-5.15,3.29-7.68,2.44-5.27,4.85-10.57,8.34-15.28,2.5-3.36,4.8-6.88,7.45-10.11,2.19-2.68,4.74-5.07,7.18-7.54a27.75,27.75,0,0,1,13.21-7.85,31.26,31.26,0,0,1,11.69-.27,30.27,30.27,0,0,1,10.59,3.2A19.74,19.74,0,0,1,295.49,139c.6,3.26.79,6.59,1.17,9.89,0,7.18-1.74,14-3.48,20.85A137,137,0,0,1,282.14,198.85Zm82.55-69.61c-.13,4-1.19,8.07-1.95,12.09a46.7,46.7,0,0,1-1.85,7.7c-1.13,3-3.76,4.27-6.87,4.42-5.77.27-11.29-1.15-16.81-2.56a2.53,2.53,0,0,1-.51-.22c-2.65-1.21-2.3-2-1.15-4.08,1.45-2.55,3-5.05,4.35-7.63,1-1.92,1-4.56-.63-5.67a5.07,5.07,0,0,0-5.16-.37,13.75,13.75,0,0,0-6.14,5.15,38.34,38.34,0,0,0-5.84,13.45c-.71,3.14-.77,6.21,1.51,8.88a8.38,8.38,0,0,0,5.44,2.71c1.4.2,2.82.27,4.23.38.66,0,1.4,0,2,0,3.6-.48,7.2-1,10.8-1.44s7.36-.51,10.77,1.34c3,1.64,4.37,4.32,4.72,7.64.25,2.37.71,4.72.9,7.1s.22,4.73.22,7.1c0,2.15-.12,4.3-.26,6.45s-.34,4.32-.58,6.48a50.14,50.14,0,0,1-3.16,12.42,42,42,0,0,1-9.53,15.32,72,72,0,0,1-15.27,11.49,39.3,39.3,0,0,1-11.62,4.51c-6.65,1.27-13.14,1.17-19.34-1.89-2.67-1.32-4.43-3.68-5.9-6.12-2.46-4.1-4.7-8.37-5.53-13.13a49.35,49.35,0,0,1-.29-7.51c0-1.33.08-2.66,0-4-.27-4.34,1.17-8.39,2.18-12.49a70,70,0,0,1,3-9.22,7.73,7.73,0,0,1,7.54-5c4.63-.08,9.26.1,13.89.26a12.9,12.9,0,0,1,3.41.63c1.51.48,1.83,1.6,1.7,3.19-.35,4.19-.51,8.41,3.32,11.4a9.47,9.47,0,0,0,5,1.62,9.14,9.14,0,0,0,6.24-1.3,16.37,16.37,0,0,0,6.1-7.52,21,21,0,0,0,1.51-8,7.33,7.33,0,0,0-7-7.44c-3.82-.26-7.35.86-10.86,1.88a22.76,22.76,0,0,1-16.18-1.3c-2.67-1.18-3.85-3.42-3.92-6.31-.05-1.82-.34-3.65-.24-5.47.11-2.14.49-4.27.81-6.4.23-1.55.52-3.08.85-4.6.41-1.89.82-3.78,1.33-5.64a42.21,42.21,0,0,1,1.78-5.55c1.53-3.54,3.1-7.07,4.93-10.45a81.46,81.46,0,0,1,6-9.58c3.55-4.8,7.55-9.22,13.08-11.89a28.92,28.92,0,0,1,8.6-2.17,24.2,24.2,0,0,1,12,1.21c3.61,1.32,5.81,3.94,7.09,7.63C364.81,120.82,364.84,125.07,364.69,129.24Zm98.92-7.75c-2.23,5.9-4.61,11.74-6.9,17.61-1.28,3.28-2.59,6.56-3.63,9.92a5.74,5.74,0,0,1-5.14,4.47,194.13,194.13,0,0,0-22.75,4.71c-2.18.6-4.43.92-5.87,2.87a30.31,30.31,0,0,0-1.85,3.18c-1.23,2.18-2.78,4.24-3.6,6.57-1.52,4.33-2.69,8.8-3.87,13.25a17.08,17.08,0,0,0,.27,8.34,7.39,7.39,0,0,0,7.47,6c3.64,0,7.19-.3,10.48-2a5.9,5.9,0,0,0,1.66-1c2.07-2.28,4.35-1.83,6.87-.86,6.7,2.59,13.46,5,20.18,7.57,1.64.62,3.23,1.42,4.84,2.12.75.33,1,.84.49,1.51-1,1.38-2,2.8-3.21,4.07A62.89,62.89,0,0,1,446,220.9c-2.64,1.65-5.23,3.52-8.1,4.61-5.19,2-10.53,3.52-15.86,5.08-4.77,1.39-9.71,1.31-14.64,1.54a31.75,31.75,0,0,1-11.09-.95c-6.89-2.14-11.26-6.76-12.76-13.83a44.1,44.1,0,0,1-1.11-9.14c0-3.25.72-6.49,1-9.74a79,79,0,0,1,3.48-16.18c1.16-3.71,2.57-7.35,3.89-11,.73-2,1.55-4,2.25-6,1.06-3,.19-4.4-3-4.4-2.71,0-5.42.35-8.13.6-2.33.22-4.64.51-7,.79-2,.24-4.07.5-6.1.76-1.8.23-2.82-.83-2.57-2.39,1.45-9,4.48-17.51,8.09-25.82,2.26-5.2,4.68-10.33,7.07-15.47.86-1.87,1.92-2.26,3.91-1.71,4.46,1.25,8.93,2.48,13.39,3.72,2.12.58,3.54.13,4.35-2.45,1.26-4,2.37-8.09,3.7-12.08,1-3,2.19-5.85,3.35-8.76s2.29-5.53,3.43-8.29a7.66,7.66,0,0,0,.33-1.06,4.17,4.17,0,0,1,4.28-3.32q7.92.22,15.83.56c3.53.15,7.05.36,10.57.57,2.76.16,5.53.34,8.28.59a8.83,8.83,0,0,1,2,.73c-.52,1-.95,1.95-1.41,2.84q-3.95,7.56-7.89,15.11c-1.56,3-3.14,5.93-4.69,8.89a8.26,8.26,0,0,0-.57,1.42,1.78,1.78,0,0,0,1.78,2.58c.66,0,1.32,0,2,0,5.58.09,11.16.17,16.74.3a3.19,3.19,0,0,1,1.95.58C463.26,120,463.8,121,463.61,121.49Z"/><path class="cls-3" d="M32.92,241.3a9.71,9.71,0,0,1-8.11-5.69,8.67,8.67,0,0,1,.58-7.67,27.38,27.38,0,0,1,7.53-8.33,26.19,26.19,0,0,1,11-5.13c.45-.08.9-.14,1.25-.18l.19,0c2.87.11,4.59.72,5.9,2.09a6,6,0,0,1,1.42,5.4c-.85,5.14-3.54,9.7-8.23,14a21.2,21.2,0,0,1-10.73,5.53,5,5,0,0,1-.79.06Zm97-.21c-3.76,0-6.92-1.71-9.94-5.4a19.5,19.5,0,0,1-4.54-9.88,10.46,10.46,0,0,1,.14-3.88c1.21-4.66,3.07-7.94,5.83-10.32a12.6,12.6,0,0,1,6.59-3.05,15,15,0,0,1,2.19-.17,13,13,0,0,1,9.42,4.14c1.64,1.62,2.63,3.86,3.11,7.08.18,1.21.35,2.42.49,3.47l.13.92c-.32,4.46-.64,8.27-2.76,11.4a12,12,0,0,1-8.9,5.57,13.35,13.35,0,0,1-1.76.12Zm-51.77-.54a6,6,0,0,1-4.79-2,12.16,12.16,0,0,1-2.59-6.11c-.5-3.27.71-6.33,2.11-9.43a26.63,26.63,0,0,1,3.65-6.19,10.58,10.58,0,0,1,8.25-3.92h1.1a13.52,13.52,0,0,1,8.5,2.63,6,6,0,0,1,2.49,4.71c.29,4.1-1.52,7.38-4.73,11.65a24.83,24.83,0,0,1-9.81,7.75,10.26,10.26,0,0,1-4.18.94Z"/></g></g></g></svg>